<?xml version="1.0" standalone="no"?>
<!DOCTYPE svg PUBLIC "-//W3C//DTD SVG 20010904//EN"
 "http://www.w3.org/TR/2001/REC-SVG-20010904/DTD/svg10.dtd">
<svg version="1.0" xmlns="http://www.w3.org/2000/svg"
 width="471.000000pt" height="471.000000pt" viewBox="0 0 471.000000 471.000000"
 preserveAspectRatio="xMidYMid meet">
<metadata>
Created by potrace 1.14, written by Peter Selinger 2001-2017
</metadata>
<g transform="translate(0.000000,471.000000) scale(0.100000,-0.100000)"
fill="#000000" stroke="none">
<path d="M870 3258 c0 -5 -4 -7 -9 -4 -4 3 -19 -15 -31 -39 -13 -25 -27 -45
-31 -45 -8 0 -24 -40 -21 -52 1 -5 -2 -8 -8 -8 -5 0 -17 -15 -26 -32 -9 -18
-23 -37 -31 -41 -12 -7 -12 -12 -1 -25 7 -9 9 -14 4 -10 -10 9 -40 -27 -50
-60 -4 -12 -12 -19 -18 -16 -6 4 -8 2 -4 -4 3 -6 1 -14 -5 -17 -5 -4 -8 -14
-5 -22 3 -8 1 -11 -4 -8 -6 3 -14 -5 -20 -19 -5 -14 -14 -26 -20 -26 -6 0 -9
-4 -5 -9 3 -5 -1 -16 -9 -24 -8 -8 -12 -17 -9 -21 3 -3 -2 -8 -11 -12 -9 -3
-13 -10 -10 -15 3 -5 0 -9 -6 -9 -6 0 -8 -5 -5 -10 4 -6 1 -9 -7 -8 -7 2 -12
-5 -12 -14 1 -10 -1 -16 -5 -14 -3 2 -15 -3 -26 -11 -19 -15 -19 -15 -1 -9 15
5 17 4 8 -7 -7 -8 -8 -17 -4 -21 4 -4 0 -6 -8 -4 -8 2 -14 -3 -12 -10 1 -8 -2
-11 -8 -7 -8 5 -7 11 1 21 15 19 10 18 -37 -7 -21 -11 -32 -18 -23 -16 9 3 22
1 30 -4 17 -10 21 -49 5 -46 -6 1 -10 -3 -9 -10 2 -7 -4 -10 -12 -7 -8 4 -15
10 -15 16 0 5 4 7 8 4 4 -2 8 6 8 19 0 16 -4 21 -15 17 -11 -4 -11 -7 -3 -10
10 -3 10 -7 1 -18 -9 -11 -8 -19 6 -33 16 -19 16 -19 -4 -14 -12 3 -21 13 -21
22 0 13 -2 14 -9 2 -5 -8 -7 -20 -4 -27 2 -6 -1 -15 -8 -20 -8 -4 -10 -3 -5 4
4 7 2 12 -4 12 -6 0 -8 5 -4 12 4 7 3 8 -5 4 -6 -4 -9 -12 -6 -17 4 -5 1 -9
-5 -9 -6 0 -8 -5 -4 -12 5 -9 2 -9 -9 1 -9 7 -17 10 -17 6 0 -4 -6 -2 -14 4
-10 8 -16 9 -21 1 -3 -6 -12 -7 -18 -4 -7 4 -9 4 -5 -1 4 -4 2 -15 -5 -23 -10
-13 -9 -14 2 -7 10 5 12 4 7 -4 -10 -16 -29 -2 -21 16 4 13 3 14 -10 3 -8 -7
-13 -16 -10 -20 2 -4 -7 -5 -22 -2 -17 3 -24 1 -19 -6 3 -6 0 -13 -6 -15 -10
-4 -9 -8 2 -17 12 -10 12 -11 -5 -5 -27 9 -42 13 -32 8 4 -3 7 -11 7 -19 0 -9
-5 -12 -12 -8 -7 4 -8 3 -4 -5 6 -9 11 -9 22 0 8 6 14 7 14 2 0 -6 10 -10 22
-9 17 1 22 -4 20 -18 -2 -11 1 -15 7 -11 6 3 11 1 11 -6 0 -8 4 -9 13 0 11 8
13 6 12 -12 -3 -31 3 -39 24 -27 25 13 33 2 19 -24 -10 -19 -10 -20 6 -7 14
12 16 12 10 -4 -6 -14 -4 -16 7 -10 11 6 12 5 2 -5 -8 -9 -9 -19 -2 -32 5 -10
7 -23 4 -28 -3 -5 5 -18 17 -29 12 -12 16 -21 10 -21 -7 0 -12 -5 -12 -11 0
-5 4 -7 10 -4 6 3 7 -1 4 -9 -3 -9 -11 -13 -17 -9 -6 3 -7 1 -3 -5 5 -9 13 -9
27 -1 20 10 20 10 2 -18 -16 -26 -16 -27 0 -14 16 12 17 12 10 -5 -6 -17 -5
-18 12 -4 11 9 16 10 11 3 -4 -8 -2 -13 5 -13 7 0 9 -3 6 -7 -4 -3 1 -12 11
-20 9 -8 11 -12 4 -8 -11 6 -12 -10 -3 -54 1 -2 8 3 17 10 15 12 16 11 10 -8
-4 -13 -2 -24 5 -29 7 -4 9 -3 5 4 -3 6 -2 14 4 17 6 4 9 1 8 -7 -2 -7 3 -12
9 -11 7 2 12 -3 10 -10 -1 -6 4 -11 11 -9 8 1 11 -2 7 -8 -3 -6 -10 -8 -15 -5
-10 6 -22 -23 -15 -36 3 -5 29 -8 57 -7 40 0 54 -4 64 -18 7 -11 18 -24 24
-31 5 -7 10 -17 10 -23 0 -5 5 -10 11 -10 5 0 7 -4 4 -10 -3 -5 3 -17 15 -27
11 -10 20 -26 20 -36 0 -9 7 -20 15 -23 8 -3 17 -16 21 -27 3 -12 17 -38 31
-59 13 -20 26 -43 27 -52 1 -9 12 -25 24 -36 20 -19 26 -33 23 -52 0 -5 6 -8
14 -8 8 0 14 -3 14 -7 -3 -20 2 -34 11 -28 6 3 10 -1 10 -9 0 -9 5 -16 11 -16
5 0 7 -4 4 -10 -4 -7 145 -10 439 -10 290 0 447 4 451 10 4 6 11 8 16 4 5 -3
8 0 7 8 -2 7 2 12 9 11 12 -3 15 23 7 65 -4 19 -8 21 -19 12 -11 -9 -12 -7 -8
9 3 13 1 21 -6 21 -7 0 -9 5 -6 10 3 6 0 13 -9 16 -8 3 -13 11 -10 19 3 7 -2
15 -10 18 -9 4 -16 13 -16 22 0 8 -4 15 -9 15 -5 0 -14 14 -21 30 -7 17 -16
30 -21 30 -5 0 -8 6 -6 13 1 6 -3 11 -8 10 -6 -1 -12 8 -12 20 -1 12 -7 23
-13 25 -5 2 -10 10 -10 18 0 8 -4 14 -9 14 -7 0 -14 15 -21 48 -1 4 -11 12
-22 18 -19 10 -20 11 -2 18 32 13 265 7 278 -7 6 -7 20 -29 30 -49 11 -20 23
-35 27 -32 5 2 6 -5 4 -16 -2 -11 0 -18 6 -15 5 4 9 -1 9 -9 0 -9 3 -16 8 -16
8 0 38 -61 34 -72 -1 -4 7 -10 18 -13 11 -4 17 -12 13 -21 -3 -7 0 -14 7 -14
6 0 8 -5 5 -10 -3 -5 -1 -10 4 -10 6 0 11 -7 11 -16 0 -8 5 -12 10 -9 6 4 10
-5 10 -20 0 -14 4 -24 8 -21 5 3 15 -10 22 -29 8 -19 17 -35 21 -35 3 0 12
-13 19 -30 7 -16 16 -27 21 -24 5 3 9 0 9 -5 0 -8 137 -11 441 -11 l442 0 21
23 c23 25 31 88 9 80 -8 -3 -13 3 -13 16 0 12 -5 21 -11 21 -5 0 -7 5 -4 10 3
6 1 10 -5 10 -7 0 -10 7 -6 15 3 8 2 14 -2 12 -4 -1 -8 2 -9 7 -1 5 -6 12 -11
15 -13 9 -67 95 -64 104 1 4 -3 7 -10 7 -6 0 -9 3 -5 6 3 3 -5 18 -18 32 -13
14 -22 29 -19 34 3 4 1 8 -4 8 -4 0 -14 16 -22 35 -7 19 -17 32 -22 29 -4 -3
-8 2 -8 10 0 17 57 20 273 16 89 -1 107 -6 107 -26 0 -8 5 -14 11 -14 5 0 7
-5 4 -10 -3 -6 1 -13 9 -16 9 -3 13 -10 10 -15 -3 -5 0 -9 5 -9 6 0 10 -3 9
-7 -2 -11 36 -73 45 -73 5 0 5 -4 2 -10 -3 -5 -1 -10 5 -10 6 0 8 -4 5 -10 -3
-5 -1 -10 4 -10 6 0 11 -7 11 -15 0 -8 5 -15 10 -15 6 0 10 -9 10 -21 0 -11 4
-17 10 -14 6 3 10 -3 10 -14 0 -12 5 -21 10 -21 6 0 10 -9 10 -19 0 -10 7 -21
15 -25 8 -3 15 -12 15 -21 0 -8 5 -15 11 -15 6 0 9 -6 6 -13 -3 -8 8 -25 24
-38 16 -13 29 -29 29 -36 0 -10 94 -13 449 -13 489 0 463 -3 481 58 7 26 5 33
-13 47 -12 9 -16 13 -9 9 11 -5 12 -2 3 15 -7 11 -16 21 -21 21 -6 0 -9 6 -7
12 1 7 -3 12 -10 11 -7 -2 -10 3 -7 11 3 8 -3 19 -15 25 -12 7 -18 17 -15 26
4 8 1 15 -5 15 -6 0 -11 7 -11 15 0 8 -4 15 -9 15 -5 0 -14 14 -21 30 -7 16
-16 30 -21 30 -5 0 -8 6 -6 13 1 6 -4 11 -10 10 -7 -2 -12 0 -11 5 1 4 -4 18
-11 31 -11 19 -11 22 1 16 7 -3 3 2 -9 13 -13 11 -23 27 -23 36 0 9 -6 16 -12
16 -9 0 -8 4 2 10 13 8 12 10 -2 10 -10 0 -18 5 -18 11 0 5 4 7 10 4 6 -4 7 1
3 11 -4 12 -3 15 5 10 7 -4 18 -4 25 1 6 4 18 8 26 8 16 0 28 25 12 25 -6 0
-8 7 -4 16 5 14 8 12 19 -7 7 -13 13 -19 13 -14 1 6 -3 17 -9 25 -6 9 -5 20 3
30 9 12 9 13 -3 3 -21 -19 -34 -16 -19 5 7 9 10 14 6 11 -11 -9 -67 42 -60 54
3 5 9 4 13 -3 10 -17 30 -3 30 21 0 10 5 19 11 19 5 0 7 -5 3 -11 -4 -7 -1
-10 7 -7 8 3 13 10 12 15 -1 5 4 10 12 10 8 0 12 -3 10 -7 -2 -3 0 -12 6 -20
7 -12 9 -12 9 -1 0 7 6 11 15 7 10 -3 15 1 15 12 0 10 3 13 8 6 12 -17 39 -24
39 -9 0 7 -5 12 -11 11 -6 -2 -8 -1 -3 1 4 3 4 10 0 16 -5 8 -2 8 8 0 12 -10
18 -10 27 -1 9 9 12 9 12 0 0 -7 -4 -12 -10 -12 -5 0 -10 -4 -10 -9 0 -16 32
-5 50 17 10 12 20 18 24 15 3 -3 13 0 23 8 9 8 14 9 10 2 -5 -8 -1 -11 12 -10
11 0 17 5 14 10 -3 5 5 6 18 2 22 -7 23 -7 5 11 -12 11 -15 19 -7 22 6 2 11
10 11 18 0 9 5 12 13 8 9 -5 9 -4 0 6 -10 11 -9 16 5 27 13 10 14 13 2 11 -10
-2 -16 7 -18 25 -2 15 -7 25 -12 22 -5 -3 -11 3 -14 12 -3 10 -17 23 -31 30
-14 6 -23 8 -21 4 3 -4 -4 -7 -14 -7 -15 0 -17 4 -8 19 5 10 7 21 4 25 -3 3
-6 0 -6 -8 0 -10 -3 -10 -15 0 -8 7 -15 9 -15 5 0 -4 -8 -1 -17 6 -10 8 -14 9
-10 2 11 -18 -51 -13 -66 6 -10 14 -10 14 4 4 13 -10 16 -10 16 0 0 8 -5 14
-11 14 -6 0 -20 4 -30 9 -12 5 -17 4 -13 -3 4 -6 -3 -8 -18 -5 -14 2 -25 9
-25 16 0 6 -5 4 -10 -4 -9 -13 -10 -13 -11 0 -1 8 -1 19 0 24 1 5 -6 3 -15 -5
-12 -9 -15 -9 -10 -1 4 6 2 13 -3 13 -26 3 -30 4 -36 11 -4 4 -18 0 -32 -9
-19 -13 -23 -13 -21 -2 2 8 -3 13 -9 11 -7 -1 -13 3 -13 9 0 5 -4 8 -9 4 -5
-3 -13 -1 -16 5 -4 6 -16 8 -28 5 -13 -4 -17 -3 -11 2 6 4 10 16 8 26 -1 11 0
16 3 14 9 -10 31 18 25 32 -3 9 -1 12 6 7 11 -6 17 5 13 27 0 4 3 7 9 7 5 0
10 7 10 15 0 8 5 15 10 15 10 0 27 33 28 53 0 5 9 15 19 24 11 8 12 12 3 8 -8
-4 -4 3 10 15 14 12 18 19 10 15 -9 -4 -8 0 3 8 10 9 17 18 16 22 -4 13 25 44
35 38 7 -4 7 -1 0 6 -9 10 -6 19 13 39 13 14 21 32 18 39 -2 8 0 11 5 8 9 -6
14 8 11 28 0 4 4 7 9 7 6 0 15 11 20 25 5 14 14 25 20 25 6 0 8 5 5 10 -3 6 0
13 9 16 8 3 13 11 10 19 -3 7 2 15 11 19 9 3 13 10 10 16 -3 5 -1 10 5 10 6 0
8 5 5 10 -3 6 -1 10 4 10 6 0 11 7 11 15 0 8 5 15 11 15 7 0 10 12 7 30 -2 16
0 32 6 34 6 2 1 5 -11 5 -16 1 -21 6 -17 16 4 10 0 16 -12 17 -77 6 -894 2
-894 -5 0 -4 -5 -5 -10 -2 -6 3 -10 1 -10 -6 0 -7 -6 -20 -14 -28 -8 -9 -16
-23 -18 -31 -2 -8 -10 -22 -18 -30 -8 -8 -16 -22 -18 -30 -2 -8 -8 -18 -14
-21 -5 -3 -10 -10 -11 -15 -1 -5 -6 -8 -10 -6 -5 1 -6 -2 -3 -7 4 -5 2 -12 -4
-16 -6 -4 -8 -10 -5 -15 3 -4 -2 -11 -11 -14 -8 -3 -13 -10 -9 -15 3 -6 -3
-14 -12 -20 -10 -5 -17 -13 -17 -18 3 -18 -20 -52 -30 -46 -6 3 -8 3 -4 -2 4
-4 3 -14 -3 -22 -6 -7 -8 -13 -5 -13 4 0 -3 -10 -14 -22 -11 -12 -18 -28 -16
-35 3 -6 -4 -15 -14 -18 -11 -3 -19 -9 -19 -13 4 -23 -3 -42 -13 -40 -6 2 -14
-6 -16 -17 -2 -11 -11 -26 -20 -32 -9 -7 -12 -13 -6 -13 5 0 2 -6 -7 -13 -16
-12 -19 -18 -19 -38 0 -5 -4 -7 -10 -4 -5 3 -10 -2 -11 -12 0 -10 -3 -13 -6
-5 -2 6 -9 12 -14 12 -6 0 -8 -4 -4 -9 3 -5 0 -13 -6 -17 -7 -4 -9 -3 -5 4 9
14 -14 21 -41 11 -12 -5 -25 -4 -28 1 -3 5 -18 5 -35 0 -19 -5 -28 -5 -25 1 8
12 -2 12 -26 -1 -15 -8 -19 -7 -19 5 0 8 -5 15 -11 15 -5 0 -7 -5 -3 -12 5 -8
-3 -9 -31 -5 -21 3 -46 2 -56 -4 -13 -7 -19 -6 -19 1 0 6 -4 9 -9 6 -5 -4 -4
5 2 18 7 13 15 22 18 20 10 -6 29 53 21 61 -4 4 0 5 8 3 8 -2 14 3 12 10 -1 6
3 12 9 12 5 0 7 5 4 10 -3 6 -1 10 6 10 7 0 9 8 6 21 -4 16 -3 18 8 9 11 -10
13 -8 10 9 -2 12 1 21 8 21 7 0 17 11 24 25 8 19 8 23 0 19 -7 -4 -2 3 10 15
13 12 23 26 23 32 0 6 4 8 9 5 5 -4 8 5 7 19 -2 13 1 22 5 19 5 -3 12 3 16 13
4 10 11 21 17 25 5 3 11 14 12 24 2 9 8 20 15 24 6 4 8 13 5 19 -4 6 -1 11 8
11 8 0 18 5 22 12 5 7 3 8 -7 3 -11 -7 -11 -5 1 11 8 10 22 25 30 32 13 12 13
13 0 6 -12 -6 -13 -5 -3 7 16 20 17 31 1 40 -10 7 -10 9 0 9 7 0 10 5 7 10 -4
6 -11 8 -16 5 -5 -4 -9 0 -9 8 0 8 -6 17 -12 19 -7 3 -213 4 -457 4 -433 -1
-444 -1 -455 -21 -6 -11 -15 -23 -21 -27 -5 -4 -7 -8 -2 -8 4 0 -2 -9 -13 -20
-12 -12 -18 -25 -15 -30 4 -6 1 -10 -5 -10 -6 0 -9 -4 -6 -9 3 -5 -1 -11 -9
-15 -8 -3 -15 -11 -15 -18 0 -7 -9 -19 -20 -26 -11 -7 -17 -18 -14 -27 4 -8
-1 -17 -9 -21 -9 -3 -13 -12 -10 -20 3 -8 1 -14 -5 -14 -5 0 -12 -9 -15 -21
-4 -13 -10 -18 -18 -13 -7 4 -10 3 -5 -4 3 -6 0 -16 -7 -24 -8 -7 -12 -19 -9
-26 2 -6 -1 -12 -6 -12 -6 0 -14 -9 -17 -20 -4 -12 -11 -17 -18 -14 -7 4 -9 4
-5 -1 4 -4 0 -21 -8 -37 -11 -22 -21 -29 -35 -25 -15 4 -18 2 -10 -7 11 -14 5
-26 -13 -26 -6 0 -5 4 2 9 11 7 10 9 -3 14 -9 4 -14 3 -11 -2 6 -9 -30 -51
-44 -51 -5 0 -7 -6 -5 -13 4 -8 -7 -12 -36 -13 -22 -1 -35 2 -29 6 8 5 9 10 2
14 -6 3 -9 20 -7 36 2 17 1 30 -3 30 -4 0 -13 9 -20 21 -8 12 -9 18 -3 14 16
-10 13 19 -5 41 -15 19 -15 18 -5 -2 7 -15 7 -21 -3 -21 -16 0 -14 39 2 45 7
2 10 8 6 13 -3 5 0 9 7 9 7 0 10 3 6 6 -3 4 -1 12 6 20 29 32 37 44 32 44 -3
0 2 13 11 29 10 17 22 27 27 24 6 -3 7 -1 3 6 -4 6 -1 18 6 26 31 34 36 43 31
49 -4 3 -1 6 6 6 7 0 9 5 6 10 -3 6 -1 10 5 10 6 0 8 5 5 10 -3 6 -2 10 3 10
5 0 10 11 10 25 0 14 -5 25 -11 25 -6 0 -8 3 -4 6 3 4 -1 14 -10 23 -15 14
-64 16 -460 17 -249 0 -443 -3 -443 -8z m785 -497 c3 -5 2 -12 -3 -15 -5 -3
-9 1 -9 9 0 17 3 19 12 6z m115 -25 c0 -3 -4 -8 -10 -11 -5 -3 -10 -1 -10 4 0
6 5 11 10 11 6 0 10 -2 10 -4z m-1474 -236 c8 0 14 -5 14 -10 0 -7 -8 -7 -22
1 -13 6 -20 8 -16 4 4 -5 2 -15 -5 -24 -10 -14 -10 -14 3 -5 8 6 22 11 30 11
8 1 22 3 30 5 8 3 11 3 7 0 -4 -2 -3 -10 4 -18 9 -11 6 -16 -17 -24 -17 -7
-31 -7 -37 -1 -6 6 -4 9 4 8 33 -1 50 4 44 13 -4 7 -13 7 -26 0 -10 -6 -19 -8
-19 -4 0 3 -7 1 -15 -6 -12 -10 -15 -10 -15 0 0 9 -4 9 -17 -1 -14 -12 -14
-10 1 14 10 15 15 27 12 27 -4 0 -1 6 6 14 7 8 15 10 16 5 2 -5 10 -9 18 -9z
m4067 -150 c4 0 6 4 3 8 -3 5 0 9 7 9 7 0 12 -10 12 -22 0 -12 -5 -22 -12 -22
-7 0 -10 4 -7 9 8 12 -10 10 -24 -4 -9 -9 -12 -9 -12 0 0 7 5 12 11 12 8 0 7
6 -2 18 -11 14 -11 15 1 5 8 -7 18 -13 23 -13z m-4112 -13 c-10 -9 -11 -8 -5
6 3 10 9 15 12 12 3 -3 0 -11 -7 -18z m4279 -67 c0 -5 -8 -10 -17 -10 -15 0
-16 2 -3 10 19 12 20 12 20 0z m-6 -35 c-4 -8 -11 -15 -16 -15 -6 0 -5 6 2 15
7 8 14 15 16 15 2 0 1 -7 -2 -15z m-4184 -27 c0 -4 -4 -8 -9 -8 -6 0 -12 4
-15 8 -3 5 1 9 9 9 8 0 15 -4 15 -9z m4062 -70 c-8 -8 -9 -4 -5 13 4 13 8 18
11 10 2 -7 -1 -18 -6 -23z m-202 -36 c0 -11 -3 -12 -14 -3 -10 8 -16 8 -25 -3
-9 -11 -6 -18 16 -35 19 -15 27 -32 28 -55 1 -18 5 -39 10 -46 6 -10 4 -12 -8
-7 -9 3 -19 2 -23 -4 -3 -6 -12 -8 -19 -5 -7 2 -18 -1 -24 -7 -8 -8 -11 -8
-11 2 0 8 -8 20 -17 28 -16 13 -16 13 5 3 22 -11 23 -10 17 9 -4 13 0 27 12
39 20 20 27 42 15 42 -4 0 -16 -13 -25 -30 -25 -42 -55 -38 -36 5 9 18 9 18 5
-2 -2 -13 -1 -23 4 -23 13 0 19 26 10 41 -5 8 -4 19 3 28 10 12 8 13 -13 7
-18 -5 -15 -1 10 12 40 22 80 24 80 4z m-1355 -152 c3 -5 1 -10 -4 -10 -6 0
-11 5 -11 10 0 6 2 10 4 10 3 0 8 -4 11 -10z m120 1 c3 -5 2 -12 -3 -15 -5 -3
-9 1 -9 9 0 17 3 19 12 6z m-1360 -20 c3 -5 2 -12 -3 -15 -5 -3 -9 1 -9 9 0
17 3 19 12 6z m45 -1 c0 -5 -5 -10 -11 -10 -5 0 -7 5 -4 10 3 6 8 10 11 10 2
0 4 -4 4 -10z m-1135 -21 c-3 -3 -16 -6 -30 -6 -14 0 -25 3 -25 6 0 4 13 7 29
7 17 0 28 -3 26 -7z m3856 -492 c-10 -9 -11 -8 -5 6 3 10 9 15 12 12 3 -3 0
-11 -7 -18z"/>
<path d="M4127 2074 c-3 -3 -3 -13 0 -21 5 -12 7 -12 14 -1 15 23 4 40 -14 22z"/>
<path d="M4174 2042 c4 -7 1 -15 -10 -19 -15 -5 -15 -8 -2 -17 18 -13 20 -46
2 -39 -6 2 -14 0 -18 -5 -5 -8 29 -10 38 -1 2 2 6 18 9 36 4 22 0 36 -11 45
-12 10 -14 10 -8 0z m13 -27 c0 -8 -4 -12 -9 -9 -5 3 -6 10 -3 15 9 13 12 11
12 -6z"/>
<path d="M4140 1990 c0 -5 7 -10 16 -10 8 0 12 5 9 10 -3 6 -10 10 -16 10 -5
0 -9 -4 -9 -10z"/>
<path d="M1655 2830 c-3 -5 -1 -10 4 -10 6 0 11 5 11 10 0 6 -2 10 -4 10 -3 0
-8 -4 -11 -10z"/>
<path d="M423 2595 c0 -8 4 -12 9 -9 4 3 8 9 8 15 0 5 -4 9 -8 9 -5 0 -9 -7
-9 -15z"/>
<path d="M4046 2518 c3 -5 10 -6 15 -3 13 9 11 12 -6 12 -8 0 -12 -4 -9 -9z"/>
<path d="M130 2470 c0 -5 5 -10 10 -10 6 0 10 5 10 10 0 6 -4 10 -10 10 -5 0
-10 -4 -10 -10z"/>
<path d="M4210 2068 c0 -4 4 -8 9 -8 6 0 12 4 15 8 3 5 -1 9 -9 9 -8 0 -15 -4
-15 -9z"/>
<path d="M4255 2010 c-3 -5 -1 -10 4 -10 6 0 11 5 11 10 0 6 -2 10 -4 10 -3 0
-8 -4 -11 -10z"/>
<path d="M4270 1990 c-9 -6 -10 -10 -3 -10 6 0 15 5 18 10 8 12 4 12 -15 0z"/>
<path d="M376 1968 c3 -4 11 -5 19 -1 21 7 19 12 -4 10 -11 0 -18 -5 -15 -9z"/>
<path d="M435 1949 c-10 -15 3 -25 16 -12 7 7 7 13 1 17 -6 3 -14 1 -17 -5z"/>
<path d="M4235 1941 c-3 -5 -2 -12 3 -15 5 -3 9 1 9 9 0 17 -3 19 -12 6z"/>
</g>
</svg>
